HIERARCHY
ROOT reference
{
	OFFSET 0.000000 0.000000 0.000000
	CHANNELS 6 Xposition Yposition Zposition Xrotation Yrotation Zrotation
	JOINT root
	{
		OFFSET 0.000000 93.199997 0.000000
		CHANNELS 3 Xrotation Yrotation Zrotation
		JOINT Hips
		{
			OFFSET 0.000000 0.000000 0.000000
			CHANNELS 3 Xrotation Yrotation Zrotation
			JOINT Spine
			{
				OFFSET 0.001517 -0.110504 -0.000112
				CHANNELS 3 Xrotation Yrotation Zrotation
				JOINT Spine1
				{
					OFFSET -0.769486 18.541901 -0.004703
					CHANNELS 3 Xrotation Yrotation Zrotation
					JOINT Spine2
					{
						OFFSET 1.405050 18.506500 -0.211107
						CHANNELS 3 Xrotation Yrotation Zrotation
						JOINT Neck
						{
							OFFSET -0.293624 18.555298 -0.402048
							CHANNELS 3 Xrotation Yrotation Zrotation
							JOINT Head
							{
								OFFSET -3.104060 11.106506 0.036758
								CHANNELS 3 Xrotation Yrotation Zrotation
								End Site
								{
									OFFSET 0.000000 0.100006 0.000000
								}
							}
						}
						JOINT RightShoulder
						{
							OFFSET -0.292041 18.474304 -4.040210
							CHANNELS 3 Xrotation Yrotation Zrotation
							JOINT RightArm
							{
								OFFSET -1.551871 -2.664993 -15.782799
								CHANNELS 3 Xrotation Yrotation Zrotation
								JOINT RightForearm
								{
									OFFSET -0.092029 -26.869102 -11.945900
									CHANNELS 3 Xrotation Yrotation Zrotation
									JOINT RightHand
									{
										OFFSET -6.788520 -23.655296 -3.967920
										CHANNELS 3 Xrotation Yrotation Zrotation
										End Site
										{
											OFFSET 0.000000 0.099998 0.000000
										}
									}
								}
							}
						}
						JOINT LeftShoulder
						{
							OFFSET -0.312819 18.631302 3.237820
							CHANNELS 3 Xrotation Yrotation Zrotation
							JOINT LeftArm
							{
								OFFSET -1.186509 -1.848450 15.930500
								CHANNELS 3 Xrotation Yrotation Zrotation
								JOINT LeftForearm
								{
									OFFSET -0.134937 -28.233200 8.217850
									CHANNELS 3 Xrotation Yrotation Zrotation
									JOINT LeftHand
									{
										OFFSET -6.615759 -23.973999 1.697269
										CHANNELS 3 Xrotation Yrotation Zrotation
										End Site
										{
											OFFSET 0.000000 0.099998 0.000000
										}
									}
								}
							}
						}
					}
				}
			}
			JOINT RightUpLeg
			{
				OFFSET 0.411402 0.104805 -9.548750
				CHANNELS 3 Xrotation Yrotation Zrotation
				JOINT RightLeg
				{
					OFFSET 3.365010 -44.888802 0.932777
					CHANNELS 3 Xrotation Yrotation Zrotation
					JOINT RightFoot
					{
						OFFSET 4.270081 -40.939098 1.153280
						CHANNELS 3 Xrotation Yrotation Zrotation
						JOINT RightToe
						{
							OFFSET -16.115700 -6.739770 -4.358678
							CHANNELS 3 Xrotation Yrotation Zrotation
							End Site
							{
								OFFSET 0.000000 0.100000 0.000000
							}
						}
					}
				}
			}
			JOINT LeftUpLeg
			{
				OFFSET -0.411410 -0.104797 9.548760
				CHANNELS 3 Xrotation Yrotation Zrotation
				JOINT LeftLeg
				{
					OFFSET -5.521759 -44.226501 6.381780
					CHANNELS 3 Xrotation Yrotation Zrotation
					JOINT LeftFoot
					{
						OFFSET 0.863033 -40.813702 5.391821
						CHANNELS 3 Xrotation Yrotation Zrotation
						JOINT LeftToe
						{
							OFFSET -16.379900 -7.360530 1.287842
							CHANNELS 3 Xrotation Yrotation Zrotation
							End Site
							{
								OFFSET 0.000000 0.100000 0.000000
							}
						}
					}
				}
			}
		}
	}
}
MOTION
Frames: 8
Frame Time: 0.041667
0.000000 0.000000 0.000000 -0.000000 0.000000 -0.000000 0.788017 21.647916 3.513286 -0.216486 -0.011359 -0.009475 -0.749060 -2.864861 -2.841194 -1.239485 -4.334253 -3.822108 -0.877624 -2.986579 -2.517942 -2.294332 -6.289282 3.544798 -2.395639 -4.863584 7.705167 24.559608 -4.736533 -0.261508 4.958795 -31.362347 -119.597172 -31.718394 27.847832 -32.933854 22.067597 12.424806 41.696396 0.755074 3.925365 -0.076191 -16.743623 17.594369 7.268382 18.444890 -11.492521 -23.665280 -3.688291 0.077900 0.076246 -1.348067 -12.746324 -0.194924 0.391450 -0.008684 -1.572550 3.170869 -0.109998 -0.521189 -0.000000 -0.000531 -0.000004 -0.780232 23.555775 1.065197 1.090955 2.554515 17.653821 0.789094 1.594548 -3.151782 3.193423 -0.388971 -15.999272 
0.000000 0.000000 0.000000 -0.000000 0.000000 -0.000000 0.814379 24.838922 3.612773 -0.168097 -0.013236 -0.011096 -1.169582 -3.637807 -3.030311 -1.857805 -5.392646 -4.063062 -1.297085 -3.708937 -2.657560 -2.032905 -6.424305 3.611347 -1.926683 -4.911554 7.725588 24.718366 -5.037141 -0.116608 -1.648663 -32.893522 -126.070662 -29.466549 24.811847 -30.538131 22.908991 7.844826 41.160264 0.614824 4.754875 -0.104262 -16.080232 17.810611 6.764535 20.177581 -13.174661 -26.057103 -4.210928 -3.168578 0.358888 -0.924339 -15.789133 0.170314 0.391130 -0.008682 -1.553041 2.841290 -0.037265 -0.878360 -0.000002 -0.000531 -0.000002 -0.372974 26.025690 3.049064 0.955832 2.079257 14.527374 1.205980 1.351463 -2.075797 2.538420 -0.279842 -19.115835 
0.000000 0.000000 0.000000 -0.000000 0.000000 -0.000000 0.865027 27.848804 3.483717 -0.288416 -0.016587 -0.013954 -1.420498 -4.140311 -3.075173 -2.224774 -6.113821 -4.113548 -1.545148 -4.200149 -2.674818 -1.783473 -6.780569 3.672225 -1.457923 -5.384456 7.730035 24.618642 -5.326948 0.025186 -8.933871 -32.761006 -132.199104 -27.587397 22.425365 -28.551074 23.175225 0.683255 41.445369 0.470680 5.392279 -0.122564 -15.261793 17.736504 5.982654 21.854126 -14.930790 -28.420267 -4.714255 -5.396646 0.339437 -0.233168 -18.436673 0.684688 0.388406 -0.008684 -1.542221 2.788098 -0.033858 -0.882893 -0.000001 -0.000530 -0.000003 0.402625 27.686851 6.205139 0.532537 0.984822 7.096135 0.067689 0.208836 -2.346067 2.846598 -0.253479 -15.268451 
0.000000 0.000000 0.000000 -0.000000 0.000000 -0.000000 0.921013 30.531557 3.324463 -0.372858 -0.019388 -0.016341 -1.571021 -4.380221 -3.034961 -2.439957 -6.466110 -4.052490 -1.690779 -4.439039 -2.624047 -1.553199 -7.296939 3.688025 -1.012923 -6.161184 7.656736 23.997327 -5.134197 -0.065621 -16.531530 -32.451885 -137.653269 -26.550533 21.163947 -27.458744 24.116269 -6.438465 40.775502 0.434037 5.756696 -0.132719 -14.489862 17.610425 5.038572 23.334636 -16.595917 -30.554441 -4.819764 -7.180104 0.322225 0.422289 -20.979836 1.119827 0.403686 -0.008681 -1.602911 3.125549 0.079225 0.019571 0.262313 -0.000531 0.440914 1.367078 27.794336 9.730254 -0.085123 -0.133854 -1.005555 -1.691580 -0.471867 -1.880256 3.865472 -0.268689 -11.351223 
0.000000 0.000000 0.000000 -0.000000 0.000000 -0.000000 0.972953 32.758912 3.211259 -0.360686 -0.018767 -0.015806 -1.649800 -4.375336 -2.931792 -2.544712 -6.461868 -3.908288 -1.761956 -4.434434 -2.523859 -1.327601 -7.902785 3.658853 -0.571014 -7.108503 7.512432 22.859470 -4.528455 -0.332141 -24.454931 -32.388716 -142.443581 -26.581187 21.200552 -27.490997 25.810564 -13.863511 38.975976 0.486107 5.933251 -0.139382 -13.749373 17.601164 4.079086 24.564630 -18.067703 -32.366938 -4.546900 -8.625226 0.354867 0.919772 -23.023588 1.249625 0.403688 -0.008679 -1.602910 3.533369 -0.055864 2.288062 0.000001 0.000000 -0.000001 2.239376 26.844826 13.102331 -0.751429 -1.033952 -8.114912 -3.705139 -0.794737 -0.680554 5.302036 -0.308220 -8.816377 
0.000000 0.000000 0.000000 -0.000000 0.000000 -0.000000 1.008781 34.256052 3.216812 -0.161120 -0.008469 -0.007048 -1.708116 -4.197299 -2.823971 -2.616411 -6.182709 -3.760233 -1.810993 -4.242729 -2.425941 -1.013141 -8.402545 3.632603 0.031461 -7.856196 7.384369 21.550686 -4.167355 -0.461178 -31.774303 -33.835002 -144.904253 -27.429568 22.230743 -28.384554 28.114799 -24.886588 36.755932 0.380229 6.408048 -0.150192 -12.651204 18.054722 3.589529 25.483456 -19.223754 -33.747879 -4.416785 -9.794010 0.221550 1.221606 -23.958219 0.892950 0.399214 -0.008515 -1.585149 2.325000 -1.124699 6.920831 -5.297385 0.689861 -7.125202 2.567488 25.604091 13.053024 -0.748289 -1.030221 -8.083928 -4.223997 -0.873355 -2.470334 5.239087 -0.244219 -7.075492 
0.000000 0.000000 0.000000 -0.000000 0.000000 -0.000000 1.023506 35.254926 3.384954 -0.087064 -0.004638 -0.003806 -1.639316 -3.957173 -2.655154 -2.506400 -5.835379 -3.529823 -1.736667 -4.003715 -2.276719 -0.734377 -8.741041 3.543688 0.550906 -8.311633 7.164712 20.159039 -4.199541 -0.413203 -38.658171 -36.984399 -144.778509 -28.564117 23.649412 -29.582564 32.584275 -39.807808 35.089745 0.265797 6.813150 -0.157050 -11.877129 18.814361 3.587793 26.123312 -20.059022 -34.724685 -4.592833 -9.838080 -0.332144 3.987748 -23.671383 -7.701934 -4.129756 -0.570778 16.594353 2.071145 -3.232344 6.372784 -6.167113 1.961218 -17.361701 2.986363 24.365667 12.913426 -0.747728 -1.029845 -8.096789 -3.912592 -0.997997 -4.060470 4.427589 -0.156584 -5.664091 
0.000000 0.000000 0.000000 -0.000000 0.000000 -0.000000 1.016669 35.913230 3.718057 -0.193000 -0.010094 -0.008442 -1.428568 -3.685435 -2.417061 -2.194681 -5.472670 -3.206359 -1.525255 -3.753409 -2.068328 -0.527577 -8.954741 3.359022 0.918651 -8.542042 6.788763 18.556599 -4.413344 -0.296330 -44.576960 -42.060319 -142.164541 -29.615376 25.006520 -30.695939 40.816818 -56.073019 36.190352 0.140513 7.073904 -0.158205 -11.561868 19.737527 3.964241 26.455585 -20.503099 -35.237287 -4.999825 -9.004794 -1.193003 6.272639 -22.365350 -15.097655 -7.334167 -1.934856 30.384353 0.021313 -5.823001 10.950506 -2.232556 1.924480 -28.054124 3.578965 22.904604 12.639087 -0.747179 -1.029566 -8.114910 -3.204567 -1.100946 -5.625528 3.244473 -0.077276 -4.393084 
